<svg fill="#000" version="1.1" id="csc-logo" xmlns:svg="http://www.w3.org/2000/svg" xmlns="http://www.w3.org/2000/svg" x="0px" y="0px" viewBox="0 0 150 150"><path id="path1" d="M2.3,33.7c-2.2-1.3-2.9-4.1-1.7-6.3c1.3-2.2,4.1-2.9,6.3-1.7L59,55.8c2.2,1.3,2.9,4.1,1.7,6.3c-1.3,2.2-4.1,2.9-6.3,1.7L2.3,33.7z"/><path id="path2" d="M61.2,93.5c1.3-2.2,4.1-2.9,6.3-1.7c2.2,1.3,2.9,4.1,1.7,6.3l-28.3,49c-1.3,2.2-4.1,2.9-6.3,1.7c-2.2-1.3-2.9-4.1-1.7-6.3L61.2,93.5z"/><path id="path3" d="M113.3,2.9c1.3-2.2,4.1-2.9,6.3-1.7c2.2,1.3,2.9,4.1,1.7,6.3L92.1,57.9c-2.5,5.7-2.3,10.2-0.3,13.8c2.2,4.1,6.5,7.5,11.7,10.5l44.1,25.5c2.2,1.3,2.9,4.1,1.7,6.3c-1.3,2.2-4.1,2.9-6.3,1.7L99,90.2c-6.5-3.7-12.1-8.3-15.2-14.1c-3.3-6.1-3.8-13.3,0-21.9c0.1-0.3,0.2-0.5,0.4-0.8L113.3,2.9z"/></svg>